<svg xmlns="http://www.w3.org/2000/svg" viewBox="0 0 24 24" width="14" height="14" fill="#000000" style="border-radius: 50%; background-color: #00FF00;">
    <circle cx="12" cy="12" r="12" fill="#00FF00" />
    <path d="M18.4453 12.423C18.2686 13.0945 16.9333 13.819 13.7629 15.5181C10.648 17.181 9.3406 17.8942 8.1899 17.7098C7.9209 17.6536 7.6758 17.4888 7.4781 17.2894C6.5 16.8069 6.5 15.3713 6.5 12C6.5 8.6287 6.5 7.1931 7.4781 6.7106C7.6758 6.5112 7.9209 6.3464 8.1899 6.2902C9.3406 6.1058 10.648 6.819 13.7629 8.4819C16.9333 10.181 18.2686 10.9055 18.4453 11.577C18.5182 11.8542 18.5182 12.1458 18.4453 12.423Z" stroke="none" stroke-width="0" stroke-linejoin="round" />
</svg>
